<svg width="151" height="366" viewBox="0 0 151 366" fill="none" xmlns="http://www.w3.org/2000/svg">
<rect x="35" y="20" width="80" height="300" rx="5" fill="url(#paint0_linear_1_85)"/>
<rect x="25" y="314" width="100" height="40" rx="20" fill="url(#paint1_linear_1_85)"/>
<rect x="1" width="150" height="40" rx="20" fill="url(#paint2_linear_1_85)"/>
<rect x="19" y="338" width="114" height="28" fill="#D9D9D9"/>
<path d="M23 38C26.3333 38.3333 33.6 42 36 54" stroke="white" stroke-width="2"/>
<path d="M37.027 39.3124L35.9767 47.8129L28.4728 38.8817L37.027 39.3124Z" fill="white"/>
<path d="M127.359 37.844C124.026 38.1773 116.759 41.844 114.359 53.844" stroke="white" stroke-width="2"/>
<path d="M113.332 39.1564L114.383 47.6569L121.887 38.7257L113.332 39.1564Z" fill="white"/>
<rect width="150" height="40" rx="20" fill="#9F9E9C"/>
<defs>
<linearGradient id="paint0_linear_1_85" x1="13" y1="64.25" x2="80.6636" y2="272.879" gradientUnits="userSpaceOnUse">
<stop offset="0.0180762" stop-color="#F0F0F0"/>
<stop offset="1" stop-color="#B5B5B0"/>
</linearGradient>
<linearGradient id="paint1_linear_1_85" x1="43" y1="314" x2="125" y2="354" gradientUnits="userSpaceOnUse">
<stop stop-color="#B5B5B0"/>
<stop offset="1" stop-color="#979795"/>
</linearGradient>
<linearGradient id="paint2_linear_1_85" x1="28" y1="-3.31849e-06" x2="127.172" y2="72.5649" gradientUnits="userSpaceOnUse">
<stop stop-color="#B5B5B0"/>
<stop offset="1" stop-color="#979795"/>
</linearGradient>
</defs>
</svg>
